<svg width="24" height="27" viewBox="0 0 24 27" fill="none" xmlns="http://www.w3.org/2000/svg">
<g filter="url(#filter0_d_2_479)">
<path d="M2.12992 3.49248C1.86613 2.21897 3.21985 1.2255 4.33741 1.87245L20.5839 11.2776C21.7155 11.9326 21.523 13.6369 20.2736 14.0251L12.9298 16.307C12.5938 16.4114 12.3047 16.6319 12.1133 16.9297L8.6414 22.3319C7.91531 23.4617 6.20022 23.1427 5.92772 21.8271L2.12992 3.49248Z" fill="#0085FF"/>
<path d="M4.08878 2.30831L20.3353 11.7134C21.0897 12.1501 20.9613 13.2863 20.1284 13.5451L12.7846 15.827C12.3366 15.9662 11.9511 16.2602 11.6959 16.6573L8.22404 22.0595C7.73999 22.8127 6.59659 22.6 6.41493 21.723L2.61712 3.38833C2.44126 2.53932 3.34374 1.877 4.08878 2.30831Z" stroke="white"/>
</g>
<defs>
<filter id="filter0_d_2_479" x="0.0965576" y="0.669189" width="23.235" height="25.353" filterUnits="userSpaceOnUse" color-interpolation-filters="sRGB">
<feFlood flood-opacity="0" result="BackgroundImageFix"/>
<feColorMatrix in="SourceAlpha" type="matrix" values="0 0 0 0 0 0 0 0 0 0 0 0 0 0 0 0 0 0 127 0" result="hardAlpha"/>
<feOffset dy="1"/>
<feGaussianBlur stdDeviation="1"/>
<feColorMatrix type="matrix" values="0 0 0 0 0 0 0 0 0 0 0 0 0 0 0 0 0 0 0.28 0"/>
<feBlend mode="normal" in2="BackgroundImageFix" result="effect1_dropShadow_2_479"/>
<feBlend mode="normal" in="SourceGraphic" in2="effect1_dropShadow_2_479" result="shape"/>
</filter>
</defs>
</svg>
