<svg width="12" height="12" viewBox="0 0 12 12" fill="none" xmlns="http://www.w3.org/2000/svg">
<path d="M1.70711 0.292893C1.31658 -0.0976311 0.683418 -0.0976311 0.292893 0.292893C-0.0976311 0.683418 -0.0976311 1.31658 0.292893 1.70711L1.70711 0.292893ZM11 12C11.5523 12 12 11.5523 12 11L12 2C12 1.44772 11.5523 1 11 1C10.4477 1 10 1.44772 10 2L10 10L2 10C1.44772 10 1 10.4477 1 11C1 11.5523 1.44772 12 2 12L11 12ZM0.292893 1.70711L10.2929 11.7071L11.7071 10.2929L1.70711 0.292893L0.292893 1.70711Z" fill="#FF5C00"/>
</svg>
