<svg width="30" height="30" viewBox="0 0 30 30" fill="none" xmlns="http://www.w3.org/2000/svg">
<path d="M29.7994 14.8997C29.7994 23.1286 23.1286 29.7994 14.8997 29.7994C6.67074 29.7994 0 23.1286 0 14.8997C0 6.67074 6.67074 0 14.8997 0C23.1286 0 29.7994 6.67074 29.7994 14.8997Z" fill="#8AC072"/>
<path fill-rule="evenodd" clip-rule="evenodd" d="M14.7216 7.88017C15.6156 7.41515 16.6373 7.3262 17.5985 7.62956C18.5592 7.93292 19.3447 8.59223 19.8097 9.48636C20.2992 10.4274 20.351 11.4817 20.0404 12.4167C20.9835 12.6993 21.8169 13.3455 22.306 14.286C22.771 15.1801 22.8601 16.2016 22.5566 17.1627C22.3653 17.7691 22.032 18.3055 21.5878 18.7356C21.3278 18.9871 21.0297 19.2024 20.6998 19.3741L20.1824 19.6432L21.2499 21.6958L19.4115 22.652L18.3439 20.5994L16.7642 21.421L17.8318 23.4734L16.0405 24.4053L15.5983 24.6352L14.5762 22.6699L12.3933 23.8053L11.317 21.7363L13.5001 20.6009L9.58347 13.0706L7.40037 14.206L6.32431 12.137L8.50726 11.0017L7.29622 8.67313L9.08761 7.74145L9.52968 7.5114L10.7862 9.92709L12.362 9.10746L11.1055 6.69192L12.9515 5.73193L14.2079 8.14747L14.7216 7.88017ZM16.9554 9.666C17.3725 9.79772 17.7134 10.0839 17.9151 10.4719C18.3315 11.2726 18.0185 12.2633 17.2184 12.6799H17.2181L13.3342 14.7L11.8231 11.795L15.7073 9.77477C16.0951 9.57318 16.5384 9.53444 16.9554 9.666ZM20.4115 15.2714C20.6133 15.6594 20.652 16.1027 20.5202 16.5197C20.3886 16.9369 20.1027 17.2776 19.7144 17.4794L15.8305 19.4995L14.3197 16.5945L18.2036 14.5744C19.0044 14.1579 19.9949 14.4705 20.4115 15.2714Z" fill="white"/>
</svg>
