<svg width="30" height="30" viewBox="0 0 30 30" fill="none" xmlns="http://www.w3.org/2000/svg"><path d="M29.7994 14.8997C29.7994 23.1286 23.1286 29.7994 14.8997 29.7994C6.67074 29.7994 0 23.1286 0 14.8997C0 6.67074 6.67074 0 14.8997 0C23.1286 0 29.7994 6.67074 29.7994 14.8997Z" fill="#F7931A"/><path fill-rule="evenodd" clip-rule="evenodd" d="M19.5694 9.98592C20.535 10.2735 21.3311 10.9201 21.8107 11.8065C22.2902 12.6927 22.396 13.7128 22.1083 14.6787C21.8055 15.6952 21.1095 16.4889 20.2361 16.9447C20.7172 17.8038 20.8665 18.8475 20.5641 19.8635C20.2763 20.8295 19.6299 21.6254 18.7435 22.105C18.1843 22.4076 17.5718 22.5613 16.9534 22.5613C16.5917 22.5613 16.2277 22.5087 15.8713 22.4026L15.3122 22.2361L14.6519 24.4535L12.6659 23.862L13.3262 21.6446L11.6198 21.1364L10.9594 23.3536L9.02425 22.7773L8.54672 22.635L9.17891 20.512L6.82074 19.8097L7.48631 17.5746L9.84463 18.277L12.2675 10.1421L9.90915 9.43955L10.5747 7.2046L12.933 7.90697L13.6822 5.3916L15.6174 5.96792L16.095 6.11021L15.3177 8.71974L17.0202 9.22678L17.7973 6.61725L19.7914 7.21115L19.0142 9.82068L19.5694 9.98592ZM19.9325 12.8226C20.1405 13.2073 20.1864 13.6498 20.0616 14.0691C19.8039 14.934 18.8899 15.4281 18.0253 15.1709H18.0252L13.8294 13.9213L14.7639 10.783L18.9598 12.0326C19.3789 12.1575 19.7243 12.4379 19.9325 12.8226ZM18.5173 19.2542C18.3926 19.6733 18.112 20.0187 17.7273 20.2267C17.3426 20.435 16.9001 20.4809 16.4809 20.356L12.285 19.1064L13.2199 15.9681L17.4155 17.2179H17.4156C18.2807 17.4755 18.7751 18.389 18.5173 19.2542Z" fill="white"/></svg>