<svg width="18" height="20" viewBox="0 0 18 20" fill="none" xmlns="http://www.w3.org/2000/svg">
<path opacity="0.4" d="M8.1095 4.70543C8.1095 4.18932 7.68547 3.77151 7.16168 3.77151L2.58295 3.51404C1.91545 3.51404 1.37503 4.04771 1.37503 4.70543C1.37503 5.36315 1.91545 5.89565 2.58295 5.89565L7.16168 5.63935C7.68547 5.63935 8.1095 5.22154 8.1095 4.70543Z" fill="#1A1A1A"/>
<path d="M17.3266 5.98025C17.3266 5.98025 17.6021 5.71224 17.7221 5.54605C17.9074 5.30497 18 5.0077 18 4.71161C18 4.37924 17.8955 4.07027 17.6983 3.81865C17.652 3.77301 17.4774 3.57874 17.3147 3.4184C16.3633 2.41192 13.8797 0.765271 12.5792 0.262031C12.382 0.182449 11.8832 0.0104106 11.6159 -0.000122349C11.3617 -0.00012236 11.1171 0.0560533 10.8855 0.170745C10.5956 0.33108 10.3628 0.5827 10.2358 0.879963C10.1538 1.08594 10.0267 1.7027 10.0267 1.71441C9.89844 2.38968 9.82955 3.48745 9.82955 4.69991C9.82955 5.85502 9.89844 6.90714 10.003 7.59296C10.0148 7.60466 10.1419 8.37005 10.2821 8.63337C10.5374 9.11321 11.0363 9.41164 11.5696 9.41164L11.6159 9.41164C11.9639 9.39994 12.6956 9.10151 12.6956 9.09097C13.9261 8.58773 16.3514 7.02067 17.3266 5.98025Z" fill="#1A1A1A"/>
<path opacity="0.4" d="M9.89038 15.2945C9.89038 15.8107 10.3144 16.2285 10.8382 16.2285L15.417 16.4848C16.0846 16.4848 16.625 15.9523 16.625 15.2945C16.625 14.6368 16.0846 14.1031 15.417 14.1031L10.8382 14.3606C10.3144 14.3606 9.89038 14.7784 9.89038 15.2945Z" fill="#1A1A1A"/>
<path d="M7.11467 19.829C7.40449 19.6687 7.6361 19.4171 7.76438 19.1198C7.84633 18.9138 7.97342 18.2959 7.97342 18.2854C8.1017 17.6101 8.17059 16.5123 8.17059 15.2999C8.17059 14.1448 8.1017 13.0926 7.99718 12.4068C7.9853 12.3951 7.85702 11.6297 7.71806 11.3664C7.46269 10.8854 6.96383 10.5881 6.42933 10.5881L6.38301 10.5881C6.035 10.5998 5.30452 10.8971 5.30452 10.9088C4.074 11.412 1.6474 12.9779 0.673433 14.0195C0.673433 14.0195 0.397872 14.2875 0.279095 14.4537C0.0926169 14.6936 -2.88027e-05 14.9909 -2.88157e-05 15.2893C-2.88302e-05 15.6205 0.104495 15.9283 0.301663 16.1811C0.347986 16.2268 0.522587 16.421 0.684123 16.5814C1.63671 17.5867 4.12032 19.2345 5.41973 19.7366C5.6169 19.8173 6.11695 19.9894 6.38301 19.9999C6.63838 19.9999 6.88306 19.9437 7.11467 19.829Z" fill="#1A1A1A"/>
</svg>
