<svg width="18" height="20" viewBox="0 0 18 20" fill="none" xmlns="http://www.w3.org/2000/svg">
<path opacity="0.4" d="M8.10937 4.70555C8.10937 4.18944 7.68535 3.77163 7.16156 3.77163L2.58283 3.51416C1.91532 3.51416 1.3749 4.04783 1.3749 4.70555C1.3749 5.36328 1.91532 5.89577 2.58283 5.89577L7.16156 5.63947C7.68535 5.63947 8.10937 5.22167 8.10937 4.70555Z" fill="#0085FF"/>
<path d="M17.3266 5.98037C17.3266 5.98037 17.6021 5.71236 17.7221 5.54618C17.9074 5.30509 18 5.00783 18 4.71173C18 4.37936 17.8955 4.07039 17.6983 3.81877C17.652 3.77313 17.4774 3.57886 17.3147 3.41852C16.3633 2.41204 13.8797 0.765393 12.5792 0.262153C12.382 0.182571 11.8832 0.0105327 11.6159 -2.79057e-07C11.3617 -2.90168e-07 11.1171 0.0561754 10.8855 0.170867C10.5956 0.331202 10.3628 0.582822 10.2358 0.880085C10.1538 1.08606 10.0267 1.70282 10.0267 1.71453C9.89844 2.38981 9.82955 3.48757 9.82955 4.70003C9.82955 5.85514 9.89844 6.90727 10.003 7.59308C10.0148 7.60478 10.1419 8.37017 10.2821 8.6335C10.5374 9.11333 11.0363 9.41176 11.5696 9.41176L11.6159 9.41176C11.9639 9.40006 12.6956 9.10163 12.6956 9.09109C13.9261 8.58785 16.3514 7.02079 17.3266 5.98037Z" fill="#0085FF"/>
<path opacity="0.4" d="M9.89038 15.2947C9.89038 15.8108 10.3144 16.2286 10.8382 16.2286L15.417 16.4849C16.0846 16.4849 16.625 15.9524 16.625 15.2947C16.625 14.6369 16.0846 14.1033 15.417 14.1033L10.8382 14.3607C10.3144 14.3607 9.89038 14.7785 9.89038 15.2947Z" fill="#0085FF"/>
<path d="M7.11449 19.8292C7.4043 19.6688 7.63592 19.4172 7.76419 19.1199C7.84615 18.914 7.97324 18.296 7.97324 18.2855C8.10152 17.6102 8.17041 16.5124 8.17041 15.3C8.17041 14.1449 8.10152 13.0928 7.997 12.4069C7.98512 12.3952 7.85684 11.6298 7.71787 11.3665C7.4625 10.8855 6.96364 10.5883 6.42915 10.5883L6.38283 10.5883C6.03481 10.6 5.30434 10.8972 5.30434 10.9089C4.07382 11.4122 1.64722 12.9781 0.67325 14.0197C0.67325 14.0197 0.397689 14.2877 0.278912 14.4538C0.0924337 14.6938 -0.000211908 14.991 -0.000211921 15.2895C-0.000211936 15.6207 0.104312 15.9285 0.30148 16.1812C0.347803 16.2269 0.522404 16.4212 0.68394 16.5815C1.63653 17.5868 4.12014 19.2346 5.41955 19.7367C5.61672 19.8175 6.11677 19.9895 6.38283 20C6.6382 20 6.88287 19.9438 7.11449 19.8292Z" fill="#0085FF"/>
</svg>
