<svg width="65" height="50" viewBox="0 0 55 40" fill="none" xmlns="http://www.w3.org/2000/svg">
<rect x="50.1979" y="39.2164" width="38.8845" height="4.55043" rx="2.27522" transform="rotate(-90 50.1979 39.2164)" fill="#E9EDF7"/>
<rect x="50.1979" y="39.2164" width="9.27245" height="4.55043" rx="2.27522" transform="rotate(-90 50.1979 39.2164)" fill="#0085FF"/>
<rect x="37.8094" y="39.2164" width="38.8845" height="4.55039" rx="2.2752" transform="rotate(-90 37.8094 39.2164)" fill="#E9EDF7"/>
<rect x="37.8094" y="39.2164" width="35.2951" height="4.55044" rx="2.27522" transform="rotate(-90 37.8094 39.2164)" fill="#0085FF"/>
<rect x="25.4214" y="39.2164" width="38.8845" height="4.55044" rx="2.27522" transform="rotate(-90 25.4214 39.2164)" fill="#E9EDF7"/>
<rect x="25.4214" y="39.2164" width="26.92" height="4.55044" rx="2.27522" transform="rotate(-90 25.4214 39.2164)" fill="#0085FF"/>
<rect x="13.0334" y="39.2164" width="38.8845" height="4.55044" rx="2.27522" transform="rotate(-90 13.0334 39.2164)" fill="#E9EDF7"/>
<rect x="13.0334" y="39.2164" width="20.0404" height="4.55044" rx="2.27522" transform="rotate(-90 13.0334 39.2164)" fill="#0085FF"/>
<rect x="0.644775" y="39.2164" width="38.8845" height="4.55044" rx="2.27522" transform="rotate(-90 0.644775 39.2164)" fill="#E9EDF7"/>
<rect x="0.644775" y="39.2164" width="32.0049" height="4.55045" rx="2.27523" transform="rotate(-90 0.644775 39.2164)" fill="#0085FF"/>
</svg>