<svg width="24" height="20" viewBox="0 0 10 10" fill="none" xmlns="http://www.w3.org/2000/svg">
<path d="M9.66673 0.33326C9.22238 -0.111087 8.50184 -0.111087 8.05749 0.33326L5 3.3907L1.94251 0.33326C1.49816 -0.111087 0.77762 -0.111087 0.333266 0.33326C-0.111089 0.777607 -0.111089 1.49814 0.333266 1.94248L3.39075 5.00008L0.333266 8.05752C-0.111089 8.50186 -0.111089 9.22239 0.333266 9.66674C0.77762 10.1111 1.49816 10.1111 1.94251 9.66674L5 6.6093L8.05749 9.66674C8.50184 10.1111 9.22238 10.1111 9.66673 9.66674C10.1111 9.22239 10.1111 8.50186 9.66673 8.05752L6.60925 5.00008L9.66673 1.94265C10.1111 1.4983 10.1111 0.77777 9.66673 0.333423V0.33326Z" fill="#FF5353"/>
</svg>
