<svg width="165" height="205" viewBox="0 0 165 205" fill="none" xmlns="http://www.w3.org/2000/svg">
<g opacity="0.5">
<ellipse rx="51" ry="51.5" transform="matrix(1 0 0 -1 83 125.5)" fill="#FF3A3A"/>
<circle r="2.5" transform="matrix(1 0 0 -1 128.5 166.5)" fill="#0085FF"/>
<circle r="2.5" transform="matrix(1 0 0 -1 26.5 87.5)" fill="#6FBAFF"/>
<circle r="2" transform="matrix(1 0 0 -1 126 62)" fill="#0085FF"/>
<circle r="2" transform="matrix(1 0 0 -1 141 103)" fill="#6FBAFF"/>
<circle r="2" transform="matrix(1 0 0 -1 34 161)" fill="#6FBAFF"/>
<g filter="url(#filter0_d_383_8713)">
<path d="M50 77C50 70.3726 55.3726 65 62 65H103C109.627 65 115 70.3726 115 77V158C115 164.627 109.627 170 103 170H62C55.3726 170 50 164.627 50 158V77Z" fill="url(#paint0_linear_383_8713)" shape-rendering="crispEdges"/>
</g>
<circle opacity="0.2" r="24.5" transform="matrix(1 0 0 -1 82.5 97.5)" fill="url(#paint1_linear_383_8713)"/>
<circle r="20.5" transform="matrix(1 0 0 -1 82.5 97.5)" fill="url(#paint2_linear_383_8713)"/>
<path d="M89.2178 104.217L75.7832 90.7827" stroke="white" stroke-width="3.5" stroke-linecap="round"/>
<path d="M89.217 90.7825L75.7825 104.217" stroke="white" stroke-width="3.5" stroke-linecap="round"/>
<rect opacity="0.8" x="62" y="133" width="41" height="4" rx="2" fill="white"/>
<rect opacity="0.6" x="62" y="146" width="41" height="4" rx="2" fill="white"/>
</g>
<defs>
<filter id="filter0_d_383_8713" x="0" y="0" width="165" height="205" filterUnits="userSpaceOnUse" color-interpolation-filters="sRGB">
<feFlood flood-opacity="0" result="BackgroundImageFix"/>
<feColorMatrix in="SourceAlpha" type="matrix" values="0 0 0 0 0 0 0 0 0 0 0 0 0 0 0 0 0 0 127 0" result="hardAlpha"/>
<feOffset dy="-15"/>
<feGaussianBlur stdDeviation="25"/>
<feComposite in2="hardAlpha" operator="out"/>
<feColorMatrix type="matrix" values="0 0 0 0 0.333472 0 0 0 0 0.369612 0 0 0 0 0.408333 0 0 0 0.21 0"/>
<feBlend mode="normal" in2="BackgroundImageFix" result="effect1_dropShadow_383_8713"/>
<feBlend mode="normal" in="SourceGraphic" in2="effect1_dropShadow_383_8713" result="shape"/>
</filter>
<linearGradient id="paint0_linear_383_8713" x1="82.5" y1="99.2135" x2="82.5" y2="158.202" gradientUnits="userSpaceOnUse">
<stop stop-color="white"/>
<stop offset="1" stop-color="white" stop-opacity="0"/>
</linearGradient>
<linearGradient id="paint1_linear_383_8713" x1="2.1625e-07" y1="2.19655" x2="61.5612" y2="30.8806" gradientUnits="userSpaceOnUse">
<stop stop-color="#FF3A3A"/>
<stop offset="1" stop-color="#FF8888"/>
</linearGradient>
<linearGradient id="paint2_linear_383_8713" x1="1.80944e-07" y1="1.83793" x2="51.5104" y2="25.8389" gradientUnits="userSpaceOnUse">
<stop stop-color="#FF3A3A"/>
<stop offset="1" stop-color="#FF8888"/>
</linearGradient>
</defs>
</svg>