<svg width="24" height="20" viewBox="0 0 14 10" fill="none" xmlns="http://www.w3.org/2000/svg"><path fill-rule="evenodd" clip-rule="evenodd" d="M1.672 2.344C1.30086 2.344 1 2.04314 1 1.672V1.672C1 1.30086 1.30086 1 1.672 1H12.328C12.6991 1 13 1.30086 13 1.672V1.672C13 2.04314 12.6991 2.344 12.328 2.344H1.672ZM5.656 5.65599C5.2937 5.65599 5 5.36229 5 4.99999V4.99999C5 4.6377 5.2937 4.34399 5.656 4.34399H12.344C12.7063 4.34399 13 4.6377 13 4.99999V4.99999C13 5.36229 12.7063 5.65599 12.344 5.65599H5.656ZM9.672 7.65601C9.30086 7.65601 9 7.95687 9 8.32801V8.32801C9 8.69914 9.30086 9.00001 9.672 9.00001H12.328C12.6991 9.00001 13 8.69914 13 8.32801V8.32801C13 7.95687 12.6991 7.65601 12.328 7.65601H9.672Z" fill="#0085FF"/><path d="M12.328 1.5H1.672V0.5H12.328V1.5ZM1.672 1.844H12.328V2.844H1.672V1.844ZM12.344 4.84399H5.656V3.84399H12.344V4.84399ZM5.656 5.15599H12.344V6.15599H5.656V5.15599ZM12.328 9.50001H9.672V8.50001H12.328V9.50001ZM9.672 7.15601H12.328V8.15601H9.672V7.15601ZM12.5 8.32801C12.5 8.23301 12.423 8.15601 12.328 8.15601V7.15601C12.9753 7.15601 13.5 7.68073 13.5 8.32801H12.5ZM12.328 8.50001C12.423 8.50001 12.5 8.423 12.5 8.32801H13.5C13.5 8.97528 12.9753 9.50001 12.328 9.50001V8.50001ZM8.5 8.32801C8.5 7.68073 9.02472 7.15601 9.672 7.15601V8.15601C9.57701 8.15601 9.5 8.23301 9.5 8.32801H8.5ZM9.5 8.32801C9.5 8.423 9.57701 8.50001 9.672 8.50001V9.50001C9.02472 9.50001 8.5 8.97528 8.5 8.32801H9.5ZM13.5 4.99999C13.5 5.63844 12.9824 6.15599 12.344 6.15599V5.15599C12.4302 5.15599 12.5 5.08615 12.5 4.99999H13.5ZM12.344 3.84399C12.9824 3.84399 13.5 4.36155 13.5 4.99999H12.5C12.5 4.91384 12.4302 4.84399 12.344 4.84399V3.84399ZM5.5 4.99999C5.5 5.08615 5.56984 5.15599 5.656 5.15599V6.15599C5.01756 6.15599 4.5 5.63844 4.5 4.99999H5.5ZM4.5 4.99999C4.5 4.36155 5.01756 3.84399 5.656 3.84399V4.84399C5.56984 4.84399 5.5 4.91384 5.5 4.99999H4.5ZM13.5 1.672C13.5 2.31928 12.9753 2.844 12.328 2.844V1.844C12.423 1.844 12.5 1.76699 12.5 1.672H13.5ZM12.328 0.5C12.9753 0.5 13.5 1.02472 13.5 1.672H12.5C12.5 1.57701 12.423 1.5 12.328 1.5V0.5ZM1.5 1.672C1.5 1.76699 1.57701 1.844 1.672 1.844V2.844C1.02472 2.844 0.5 2.31928 0.5 1.672H1.5ZM0.5 1.672C0.5 1.02472 1.02472 0.5 1.672 0.5V1.5C1.57701 1.5 1.5 1.57701 1.5 1.672H0.5Z" fill="#0085FF"/></svg>