<svg width="20" height="20" viewBox="0 0 20 20" fill="none" xmlns="http://www.w3.org/2000/svg">
<path fill-rule="evenodd" clip-rule="evenodd" d="M13.2428 2.73744C13.2428 4.95843 15.0459 6.7589 17.2702 6.7589C17.5151 6.7577 17.7594 6.73418 18 6.68866V14.6613C18 18.0155 16.0215 19.9999 12.6624 19.9999H5.34636C1.97851 19.9999 0 18.0155 0 14.6613V7.35598C0 4.00183 1.97851 1.99988 5.34636 1.99988H13.3131C13.2659 2.24288 13.2423 2.48989 13.2428 2.73744ZM11.15 12.8965L14.0078 9.20866V9.1911C14.2525 8.86234 14.1901 8.39877 13.8671 8.14622C13.7108 8.02556 13.5122 7.97333 13.3167 8.00146C13.1211 8.02959 12.9453 8.13568 12.8295 8.29549L10.4201 11.395L7.6766 9.235C7.51997 9.11297 7.32071 9.05909 7.12381 9.08553C6.92691 9.11196 6.74898 9.21648 6.63019 9.37549L3.67562 13.1862C3.57177 13.3157 3.51586 13.4769 3.51734 13.6428C3.5002 13.978 3.71187 14.2825 4.03238 14.3837C4.35288 14.4849 4.70138 14.3572 4.88031 14.073L7.35125 10.877L10.0948 13.0282C10.2508 13.154 10.4514 13.211 10.6504 13.1862C10.8494 13.1613 11.0297 13.0568 11.15 12.8965Z" fill="#1A1A1A"/>
<circle opacity="0.4" cx="17.5" cy="2.49988" r="2.5" fill="#1A1A1A"/>
</svg>
