<svg width="22" height="22" viewBox="0 0 22 22" fill="none" xmlns="http://www.w3.org/2000/svg">
<path fill-rule="evenodd" clip-rule="evenodd" d="M13.9398 3.59078C13.0525 0.691094 8.94757 0.691095 8.06026 3.59078C7.7992 4.44392 6.92281 4.9499 6.05343 4.74942C3.09858 4.06801 1.0461 7.62301 3.11365 9.84128C3.72196 10.4939 3.72196 11.5059 3.11365 12.1586C1.0461 14.3768 3.09858 17.9318 6.05343 17.2504C6.92281 17.0499 7.7992 17.5559 8.06026 18.4091C8.94757 21.3088 13.0525 21.3088 13.9398 18.4091C14.2009 17.5559 15.0773 17.0499 15.9467 17.2504C18.9015 17.9318 20.954 14.3768 18.8864 12.1586C18.2781 11.5059 18.2781 10.4939 18.8864 9.84128C20.954 7.62301 18.9015 4.06801 15.9467 4.74942C15.0773 4.9499 14.2009 4.44392 13.9398 3.59078ZM7.56255 11C7.56255 9.10147 9.10157 7.56245 11.0001 7.56245C12.8985 7.56245 14.4376 9.10147 14.4376 11C14.4376 12.8984 12.8985 14.4375 11.0001 14.4375C9.10157 14.4375 7.56255 12.8984 7.56255 11Z" fill="#0085FF"/>
<path opacity="0.4" fill-rule="evenodd" clip-rule="evenodd" d="M11.0625 8.9375C9.92341 8.9375 9 9.86091 9 11C9 12.1391 9.92341 13.0625 11.0625 13.0625C12.2016 13.0625 13.125 12.1391 13.125 11C13.125 9.86091 12.2016 8.9375 11.0625 8.9375Z" fill="#0085FF"/>
</svg>
